<svg width="252" height="252" viewBox="0 0 252 252" fill="none" xmlns="http://www.w3.org/2000/svg">
<g clip-path="url(#clip0)">
<rect width="252" height="252" rx="44" fill="#EBEBEB"/>
<path d="M69.9025 187.097V144.708L27.5127 144.708" stroke="#0500FF" stroke-width="11.0431"/>
<path d="M70.0652 123V115.683L76.3372 114.812L105.897 38.4442H115.711L144.748 114.812L150.962 115.683V123H126.687V115.683L133.076 114.579L127.5 99.0154H93.6432L87.8939 114.579L94.2821 115.683V123H70.0652ZM97.1858 89.4332H124.016L111.588 55.0534L110.891 53.1369H110.543L109.846 55.0534L97.1858 89.4332ZM179.709 124.22C173.166 124.22 168.191 122.632 164.784 119.457C161.377 116.244 159.673 111.734 159.673 105.926C159.673 99.964 162.113 95.1825 166.991 91.5819C171.869 87.9426 178.644 86.123 187.317 86.123H198.525V79.9671C198.525 76.173 197.363 73.2305 195.041 71.1399C192.756 69.0492 189.523 68.0039 185.342 68.0039C182.709 68.0039 180.425 68.333 178.489 68.9911C176.554 69.6106 174.792 70.4817 173.205 71.6045L171.985 80.3737H163.158V65.9713C168.849 61.3254 176.302 59.0024 185.516 59.0024C193.143 59.0024 199.125 60.8221 203.461 64.4614C207.797 68.1007 209.966 73.308 209.966 80.0833V110.34C209.966 111.153 209.966 111.947 209.966 112.721C210.004 113.495 210.062 114.27 210.14 115.044L216.238 115.683V123H199.803C199.144 119.825 198.738 116.941 198.583 114.347C196.376 117.173 193.608 119.535 190.278 121.432C186.988 123.29 183.464 124.22 179.709 124.22ZM181.393 114.637C185.187 114.637 188.652 113.728 191.788 111.908C194.924 110.088 197.17 107.901 198.525 105.345V93.963H186.91C181.645 93.963 177.696 95.2212 175.063 97.7378C172.43 100.254 171.114 103.061 171.114 106.159C171.114 111.811 174.54 114.637 181.393 114.637Z" fill="black"/>
<path d="M113.643 210.368C107.1 210.368 102.125 208.781 98.7182 205.606C95.3112 202.393 93.6077 197.882 93.6077 192.075C93.6077 186.112 96.0468 181.331 100.925 177.73C105.803 174.091 112.579 172.271 121.251 172.271H132.459V166.116C132.459 162.321 131.298 159.379 128.975 157.288C126.691 155.198 123.458 154.152 119.276 154.152C116.644 154.152 114.359 154.481 112.424 155.14C110.488 155.759 108.726 156.63 107.139 157.753L105.919 166.522H97.0921V152.12C102.783 147.474 110.236 145.151 119.451 145.151C127.078 145.151 133.059 146.971 137.395 150.61C141.732 154.249 143.9 159.456 143.9 166.232V196.488C143.9 197.301 143.9 198.095 143.9 198.869C143.938 199.644 143.997 200.418 144.074 201.192L150.172 201.831V209.149H133.737C133.079 205.974 132.672 203.089 132.517 200.495C130.31 203.322 127.542 205.683 124.213 207.581C120.922 209.439 117.399 210.368 113.643 210.368ZM115.327 200.786C119.122 200.786 122.587 199.876 125.723 198.056C128.859 196.237 131.104 194.049 132.459 191.494V180.111H120.844C115.579 180.111 111.63 181.37 108.997 183.886C106.365 186.403 105.048 189.21 105.048 192.307C105.048 197.96 108.475 200.786 115.327 200.786ZM179.383 210.368C172.84 210.368 167.865 208.781 164.458 205.606C161.051 202.393 159.347 197.882 159.347 192.075C159.347 186.112 161.787 181.331 166.665 177.73C171.543 174.091 178.318 172.271 186.991 172.271H198.199V166.116C198.199 162.321 197.038 159.379 194.715 157.288C192.43 155.198 189.198 154.152 185.016 154.152C182.384 154.152 180.099 154.481 178.163 155.14C176.228 155.759 174.466 156.63 172.879 157.753L171.659 166.522H162.832V152.12C168.523 147.474 175.976 145.151 185.19 145.151C192.817 145.151 198.799 146.971 203.135 150.61C207.471 154.249 209.64 159.456 209.64 166.232V196.488C209.64 197.301 209.64 198.095 209.64 198.869C209.678 199.644 209.736 200.418 209.814 201.192L215.912 201.831V209.149H199.477C198.818 205.974 198.412 203.089 198.257 200.495C196.05 203.322 193.282 205.683 189.952 207.581C186.662 209.439 183.138 210.368 179.383 210.368ZM181.067 200.786C184.861 200.786 188.326 199.876 191.462 198.056C194.598 196.237 196.844 194.049 198.199 191.494V180.111H186.584C181.319 180.111 177.37 181.37 174.737 183.886C172.104 186.403 170.788 189.21 170.788 192.307C170.788 197.96 174.214 200.786 181.067 200.786Z" fill="black"/>
<line x1="71.6488" y1="144.115" x2="15.6789" y2="194.149" stroke="#0500FF" stroke-width="11.04"/>
</g>
<defs>
<clipPath id="clip0">
<rect width="252" height="252" rx="44" fill="white"/>
</clipPath>
</defs>
</svg>
