<svg width="260" height="260" viewBox="0 0 260 260" fill="none" xmlns="http://www.w3.org/2000/svg">
<g filter="url(#filter0_d)">
<g clip-path="url(#clip0)">
<rect x="4" y="4" width="252" height="252" rx="44" fill="#EBEBEB"/>
<path d="M73.9025 191.097V148.708L31.5127 148.708" stroke="#0500FF" stroke-width="11.0431"/>
<path d="M74.0652 127V119.683L80.3372 118.812L109.897 42.4442H119.711L148.748 118.812L154.962 119.683V127H130.687V119.683L137.076 118.579L131.5 103.015H97.6432L91.8939 118.579L98.2821 119.683V127H74.0652ZM101.186 93.4332H128.016L115.588 59.0534L114.891 57.1369H114.543L113.846 59.0534L101.186 93.4332ZM183.709 128.22C177.166 128.22 172.191 126.632 168.784 123.457C165.377 120.244 163.673 115.734 163.673 109.926C163.673 103.964 166.113 99.1825 170.991 95.5819C175.869 91.9426 182.644 90.123 191.317 90.123H202.525V83.9671C202.525 80.173 201.363 77.2305 199.041 75.1399C196.756 73.0492 193.523 72.0039 189.342 72.0039C186.709 72.0039 184.425 72.333 182.489 72.9911C180.554 73.6106 178.792 74.4817 177.205 75.6045L175.985 84.3737H167.158V69.9713C172.849 65.3254 180.302 63.0024 189.516 63.0024C197.143 63.0024 203.125 64.8221 207.461 68.4614C211.797 72.1007 213.966 77.308 213.966 84.0833V114.34C213.966 115.153 213.966 115.947 213.966 116.721C214.004 117.495 214.062 118.27 214.14 119.044L220.238 119.683V127H203.803C203.144 123.825 202.738 120.941 202.583 118.347C200.376 121.173 197.608 123.535 194.278 125.432C190.988 127.29 187.464 128.22 183.709 128.22ZM185.393 118.637C189.187 118.637 192.652 117.728 195.788 115.908C198.924 114.088 201.17 111.901 202.525 109.345V97.963H190.91C185.645 97.963 181.696 99.2212 179.063 101.738C176.43 104.254 175.114 107.061 175.114 110.159C175.114 115.811 178.54 118.637 185.393 118.637Z" fill="black"/>
<path d="M117.643 214.368C111.1 214.368 106.125 212.781 102.718 209.606C99.3112 206.393 97.6077 201.882 97.6077 196.075C97.6077 190.112 100.047 185.331 104.925 181.73C109.803 178.091 116.579 176.271 125.251 176.271H136.459V170.116C136.459 166.321 135.298 163.379 132.975 161.288C130.691 159.198 127.458 158.152 123.276 158.152C120.644 158.152 118.359 158.481 116.424 159.14C114.488 159.759 112.726 160.63 111.139 161.753L109.919 170.522H101.092V156.12C106.783 151.474 114.236 149.151 123.451 149.151C131.078 149.151 137.059 150.971 141.395 154.61C145.732 158.249 147.9 163.456 147.9 170.232V200.488C147.9 201.301 147.9 202.095 147.9 202.869C147.938 203.644 147.997 204.418 148.074 205.192L154.172 205.831V213.149H137.737C137.079 209.974 136.672 207.089 136.517 204.495C134.31 207.322 131.542 209.683 128.213 211.581C124.922 213.439 121.399 214.368 117.643 214.368ZM119.327 204.786C123.122 204.786 126.587 203.876 129.723 202.056C132.859 200.237 135.104 198.049 136.459 195.494V184.111H124.844C119.579 184.111 115.63 185.37 112.997 187.886C110.365 190.403 109.048 193.21 109.048 196.307C109.048 201.96 112.475 204.786 119.327 204.786ZM183.383 214.368C176.84 214.368 171.865 212.781 168.458 209.606C165.051 206.393 163.347 201.882 163.347 196.075C163.347 190.112 165.787 185.331 170.665 181.73C175.543 178.091 182.318 176.271 190.991 176.271H202.199V170.116C202.199 166.321 201.038 163.379 198.715 161.288C196.43 159.198 193.198 158.152 189.016 158.152C186.384 158.152 184.099 158.481 182.163 159.14C180.228 159.759 178.466 160.63 176.879 161.753L175.659 170.522H166.832V156.12C172.523 151.474 179.976 149.151 189.19 149.151C196.817 149.151 202.799 150.971 207.135 154.61C211.471 158.249 213.64 163.456 213.64 170.232V200.488C213.64 201.301 213.64 202.095 213.64 202.869C213.678 203.644 213.736 204.418 213.814 205.192L219.912 205.831V213.149H203.477C202.818 209.974 202.412 207.089 202.257 204.495C200.05 207.322 197.282 209.683 193.952 211.581C190.662 213.439 187.138 214.368 183.383 214.368ZM185.067 204.786C188.861 204.786 192.326 203.876 195.462 202.056C198.598 200.237 200.844 198.049 202.199 195.494V184.111H190.584C185.319 184.111 181.37 185.37 178.737 187.886C176.104 190.403 174.788 193.21 174.788 196.307C174.788 201.96 178.214 204.786 185.067 204.786Z" fill="black"/>
<line x1="75.6488" y1="148.115" x2="19.6789" y2="198.149" stroke="#0500FF" stroke-width="11.04"/>
</g>
<rect x="4.5" y="4.5" width="251" height="251" rx="43.5" stroke="black"/>
</g>
<defs>
<filter id="filter0_d" x="0" y="0" width="260" height="260" filterUnits="userSpaceOnUse" color-interpolation-filters="sRGB">
<feFlood flood-opacity="0" result="BackgroundImageFix"/>
<feColorMatrix in="SourceAlpha" type="matrix" values="0 0 0 0 0 0 0 0 0 0 0 0 0 0 0 0 0 0 127 0"/>
<feOffset/>
<feGaussianBlur stdDeviation="2"/>
<feColorMatrix type="matrix" values="0 0 0 0 0 0 0 0 0 0 0 0 0 0 0 0 0 0 0.25 0"/>
<feBlend mode="normal" in2="BackgroundImageFix" result="effect1_dropShadow"/>
<feBlend mode="normal" in="SourceGraphic" in2="effect1_dropShadow" result="shape"/>
</filter>
<clipPath id="clip0">
<rect x="4" y="4" width="252" height="252" rx="44" fill="white"/>
</clipPath>
</defs>
</svg>
