<svg width="252" height="252" viewBox="0 0 252 252" fill="none" xmlns="http://www.w3.org/2000/svg">
<g clip-path="url(#clip0)">
<rect width="252" height="252" fill="url(#paint0_linear)"/>
<path d="M19 136L57 174L95 136" stroke="#0500FF" stroke-width="14"/>
<path d="M56.2979 121V111.464L64.4717 110.329L102.995 10.8047H115.785L153.627 110.329L161.725 111.464V121H130.089V111.464L138.415 110.026L131.149 89.7427H87.0254L79.5327 110.026L87.8579 111.464V121H56.2979ZM91.6421 77.2549H126.608L110.412 32.4502L109.503 29.9526H109.049L108.141 32.4502L91.6421 77.2549ZM199.188 122.589C190.661 122.589 184.178 120.521 179.738 116.383C175.298 112.195 173.078 106.317 173.078 98.749C173.078 90.9788 176.256 84.7476 182.614 80.0552C188.971 75.3123 197.801 72.9409 209.103 72.9409H223.71V64.9185C223.71 59.9738 222.196 56.1392 219.169 53.4146C216.192 50.6899 211.979 49.3276 206.53 49.3276C203.099 49.3276 200.122 49.7565 197.599 50.6143C195.076 51.4215 192.781 52.5568 190.712 54.02L189.123 65.4482H177.619V46.6787C185.036 40.624 194.748 37.5967 206.757 37.5967C216.697 37.5967 224.492 39.9681 230.143 44.7109C235.794 49.4538 238.62 56.2401 238.62 65.0698V104.501C238.62 105.561 238.62 106.595 238.62 107.604C238.67 108.613 238.746 109.622 238.847 110.631L246.793 111.464V121H225.375C224.517 116.863 223.987 113.104 223.786 109.723C220.91 113.406 217.302 116.484 212.963 118.957C208.674 121.378 204.083 122.589 199.188 122.589ZM201.383 110.102C206.328 110.102 210.844 108.916 214.931 106.544C219.018 104.173 221.944 101.322 223.71 97.9922V83.1582H208.573C201.711 83.1582 196.565 84.798 193.134 88.0776C189.703 91.3573 187.987 95.0153 187.987 99.0518C187.987 106.418 192.453 110.102 201.383 110.102Z" fill="black"/>
<path d="M113.09 246.589C104.563 246.589 98.0793 244.521 93.6392 240.383C89.1991 236.195 86.979 230.317 86.979 222.749C86.979 214.979 90.1577 208.748 96.5151 204.055C102.873 199.312 111.702 196.941 123.004 196.941H137.611V188.918C137.611 183.974 136.098 180.139 133.07 177.415C130.093 174.69 125.88 173.328 120.431 173.328C117 173.328 114.023 173.757 111.5 174.614C108.978 175.422 106.682 176.557 104.613 178.02L103.024 189.448H91.52V170.679C98.937 164.624 108.65 161.597 120.658 161.597C130.598 161.597 138.393 163.968 144.044 168.711C149.695 173.454 152.521 180.24 152.521 189.07V228.501C152.521 229.561 152.521 230.595 152.521 231.604C152.571 232.613 152.647 233.622 152.748 234.631L160.695 235.464V245H139.276C138.419 240.863 137.889 237.104 137.687 233.723C134.811 237.406 131.203 240.484 126.864 242.957C122.576 245.378 117.984 246.589 113.09 246.589ZM115.285 234.102C120.229 234.102 124.745 232.916 128.832 230.544C132.919 228.173 135.845 225.322 137.611 221.992V207.158H122.475C115.613 207.158 110.466 208.798 107.035 212.078C103.604 215.357 101.889 219.015 101.889 223.052C101.889 230.418 106.354 234.102 115.285 234.102ZM198.764 246.589C190.237 246.589 183.753 244.521 179.313 240.383C174.873 236.195 172.653 230.317 172.653 222.749C172.653 214.979 175.832 208.748 182.189 204.055C188.546 199.312 197.376 196.941 208.678 196.941H223.285V188.918C223.285 183.974 221.771 180.139 218.744 177.415C215.767 174.69 211.554 173.328 206.105 173.328C202.674 173.328 199.697 173.757 197.174 174.614C194.652 175.422 192.356 176.557 190.287 178.02L188.698 189.448H177.194V170.679C184.611 164.624 194.324 161.597 206.332 161.597C216.272 161.597 224.067 163.968 229.718 168.711C235.369 173.454 238.195 180.24 238.195 189.07V228.501C238.195 229.561 238.195 230.595 238.195 231.604C238.245 232.613 238.321 233.622 238.422 234.631L246.369 235.464V245H224.95C224.092 240.863 223.563 237.104 223.361 233.723C220.485 237.406 216.877 240.484 212.538 242.957C208.249 245.378 203.658 246.589 198.764 246.589ZM200.958 234.102C205.903 234.102 210.419 232.916 214.506 230.544C218.593 228.173 221.519 225.322 223.285 221.992V207.158H208.148C201.286 207.158 196.14 208.798 192.709 212.078C189.278 215.357 187.562 219.015 187.562 223.052C187.562 230.418 192.028 234.102 200.958 234.102Z" fill="black"/>
</g>
<defs>
<linearGradient id="paint0_linear" x1="126" y1="0" x2="126" y2="252" gradientUnits="userSpaceOnUse">
<stop stop-color="#FAFF10"/>
<stop offset="1" stop-color="#FF4D01"/>
</linearGradient>
<clipPath id="clip0">
<rect width="252" height="252" fill="white"/>
</clipPath>
</defs>
</svg>
